<svg width="33" height="32" viewBox="0 0 33 32" fill="none" xmlns="http://www.w3.org/2000/svg">
<path fill-rule="evenodd" clip-rule="evenodd" d="M6.31267 6.74751C6.31534 6.74751 6.24867 6.81684 6.16467 6.89951C5.842 7.21284 5.174 7.86484 5.16727 9.22884C5.15667 11.1368 6.41134 14.6795 12.4527 20.7195C18.466 26.7302 22.0033 27.9995 23.9153 27.9995H23.9433C25.3073 27.9928 25.958 27.3235 26.2727 27.0022C26.3687 26.9035 26.446 26.8315 26.5007 26.7862C27.8287 25.4502 28.5087 24.4555 28.5021 23.8182C28.4927 23.1675 27.6833 22.3982 26.5647 21.3342C26.2087 20.9955 25.822 20.6275 25.414 20.2195C24.3567 19.1648 23.8327 19.3448 22.6807 19.7502C21.0873 20.3088 18.9007 21.0688 15.5033 17.6702C12.1007 14.2702 12.862 12.0862 13.4193 10.4928C13.822 9.34084 14.006 8.81551 12.9473 7.75684C12.5327 7.34351 12.1607 6.95151 11.818 6.59151C10.7607 5.47951 9.998 4.67551 9.35134 4.66617H9.34067C8.702 4.66617 7.71 5.34884 6.306 6.75284C6.31 6.74884 6.31267 6.74751 6.31267 6.74751ZM23.9167 29.9995C20.594 29.9995 16.262 27.3542 11.0393 22.1342C5.79667 16.8928 3.14734 12.5475 3.16723 9.21817C3.17934 7.01817 4.33267 5.89151 4.766 5.46884C4.78867 5.44084 4.866 5.36484 4.89267 5.33817C6.80467 3.42484 8.094 2.65151 9.37667 2.66597C10.866 2.68617 11.926 3.80084 13.2673 5.21284C13.5993 5.56218 13.9593 5.94217 14.3607 6.34218C16.3073 8.28884 15.7527 9.87684 15.3073 11.1515C14.822 12.5422 14.402 13.7422 16.9167 16.2568C19.434 18.7715 20.634 18.3515 22.0193 17.8622C23.2953 17.4168 24.8793 16.8595 26.8287 18.8062C27.2233 19.2008 27.598 19.5568 27.9433 19.8862C29.362 21.2342 30.482 22.2995 30.5009 23.7928C30.5167 25.0662 29.7433 26.3635 27.834 28.2742L26.9887 27.7008L27.7033 28.3995C27.2807 28.8328 26.1553 29.9875 23.954 29.9995H23.9167Z" fill="#F2F2F2"/>
</svg>
