<svg width="51" height="45" viewBox="0 0 51 45" fill="none" xmlns="http://www.w3.org/2000/svg">
<path d="M38.9185 39.2437C37.2334 40.9284 34.9933 41.8561 32.6104 41.8561C30.2278 41.8561 27.9875 40.9284 26.3029 39.2439C26.302 39.2433 19.9308 32.8733 19.9308 32.8733C18.6722 31.6146 18.6726 29.5664 19.9312 28.3072C21.1899 27.0491 23.2379 27.0489 24.4964 28.3076C25.0123 28.8235 25.8496 28.8235 26.3656 28.3076C27.6248 27.0493 29.6726 27.0489 30.9313 28.3072C32.1897 29.5664 32.1897 31.6146 30.9316 32.8733L27.8942 35.9107C27.3777 36.427 27.3777 37.2638 27.8942 37.7801C28.4101 38.2964 29.2474 38.2964 29.7634 37.7801L32.801 34.7425C35.0901 32.4532 35.0901 28.7278 32.801 26.4378C30.8018 24.4388 27.7083 24.1856 25.4311 25.6773C23.1546 24.1854 20.0608 24.4394 18.0616 26.4382C15.7724 28.7277 15.7724 32.4532 18.0616 34.7426L23.4296 40.1104C21.9032 41.2438 20.0614 41.8561 18.1254 41.8561C15.7426 41.8561 13.5025 40.9284 11.8176 39.2439C8.33969 35.7653 8.33969 30.1058 11.8174 26.6277L20.8197 17.6254C22.0346 16.4107 23.6498 15.7417 25.3678 15.7417C27.0856 15.7417 28.701 16.4107 29.9157 17.6256L38.9185 26.6281C40.6031 28.3126 41.5312 30.5529 41.5312 32.9355C41.5312 35.3183 40.6031 37.5586 38.9185 39.2437ZM40.7877 24.7583L31.7849 15.7562C30.0709 14.0419 27.7921 13.098 25.3678 13.098C22.9438 13.098 20.6647 14.0419 18.9505 15.7562L9.94818 24.7587C5.43931 29.2672 5.43931 36.6038 9.94818 41.1134C12.1324 43.2973 15.0364 44.5 18.1254 44.5C20.7919 44.5 23.321 43.6035 25.368 41.9533C27.4149 43.6035 29.9436 44.5 32.6104 44.5C35.6994 44.5 38.6034 43.2973 40.7877 41.1131C42.9719 38.9287 44.1752 36.0243 44.1752 32.9355C44.1752 29.8465 42.9719 26.9425 40.7877 24.7583Z" fill="#EFEEEC"/>
<path d="M38.9185 39.2437C37.2334 40.9284 34.9933 41.8561 32.6104 41.8561C30.2278 41.8561 27.9875 40.9284 26.3029 39.2439C26.302 39.2433 19.9308 32.8733 19.9308 32.8733C18.6722 31.6146 18.6726 29.5664 19.9312 28.3072C21.1899 27.0491 23.2379 27.0489 24.4964 28.3076C25.0123 28.8235 25.8496 28.8235 26.3656 28.3076C27.6248 27.0493 29.6726 27.0489 30.9313 28.3072C32.1897 29.5664 32.1897 31.6146 30.9316 32.8733L27.8942 35.9107C27.3777 36.427 27.3777 37.2638 27.8942 37.7801C28.4101 38.2964 29.2474 38.2964 29.7634 37.7801L32.801 34.7425C35.0901 32.4532 35.0901 28.7278 32.801 26.4378C30.8018 24.4388 27.7083 24.1856 25.4311 25.6773C23.1546 24.1854 20.0608 24.4394 18.0616 26.4382C15.7724 28.7277 15.7724 32.4532 18.0616 34.7426L23.4296 40.1104C21.9032 41.2438 20.0614 41.8561 18.1254 41.8561C15.7426 41.8561 13.5025 40.9284 11.8176 39.2439C8.33969 35.7653 8.33969 30.1058 11.8174 26.6277L20.8197 17.6254C22.0346 16.4107 23.6498 15.7417 25.3678 15.7417C27.0856 15.7417 28.701 16.4107 29.9157 17.6256L38.9185 26.6281C40.6031 28.3126 41.5312 30.5529 41.5312 32.9355C41.5312 35.3183 40.6031 37.5586 38.9185 39.2437ZM40.7877 24.7583L31.7849 15.7562C30.0709 14.0419 27.7921 13.098 25.3678 13.098C22.9438 13.098 20.6647 14.0419 18.9505 15.7562L9.94818 24.7587C5.43931 29.2672 5.43931 36.6038 9.94818 41.1134C12.1324 43.2973 15.0364 44.5 18.1254 44.5C20.7919 44.5 23.321 43.6035 25.368 41.9533C27.4149 43.6035 29.9436 44.5 32.6104 44.5C35.6994 44.5 38.6034 43.2973 40.7877 41.1131C42.9719 38.9287 44.1752 36.0243 44.1752 32.9355C44.1752 29.8465 42.9719 26.9425 40.7877 24.7583Z" fill="#EFEEEC"/>
<path d="M44.8442 14.5926C43.1531 14.5926 41.7336 15.9157 41.6127 17.6046C41.4849 19.3887 42.832 20.9442 44.6158 21.0723C46.4031 21.1974 47.9566 19.8353 48.0835 18.0685C48.2113 16.2844 46.8639 14.729 45.08 14.601C45.0014 14.5953 44.9221 14.5926 44.8442 14.5926ZM44.8518 23.7244C44.7108 23.7244 44.5679 23.7193 44.4274 23.7091C41.1888 23.4771 38.7434 20.6539 38.9757 17.4158C39.1952 14.3501 41.773 11.9488 44.8442 11.9488C44.9849 11.9488 45.1278 11.9538 45.2688 11.964C48.5069 12.1962 50.9523 15.0194 50.7205 18.2575C50.5006 21.3229 47.9225 23.7244 44.8518 23.7244Z" fill="#EFEEEC"/>
<path d="M44.8442 14.5926C43.1531 14.5926 41.7336 15.9157 41.6127 17.6046C41.4849 19.3887 42.832 20.9442 44.6158 21.0723C46.4031 21.1974 47.9566 19.8353 48.0835 18.0685C48.2113 16.2844 46.8639 14.729 45.08 14.601C45.0014 14.5953 44.9221 14.5926 44.8442 14.5926ZM44.8518 23.7244C44.7108 23.7244 44.5679 23.7193 44.4274 23.7091C41.1888 23.4771 38.7434 20.6539 38.9757 17.4158C39.1952 14.3501 41.773 11.9488 44.8442 11.9488C44.9849 11.9488 45.1278 11.9538 45.2688 11.964C48.5069 12.1962 50.9523 15.0194 50.7205 18.2575C50.5006 21.3229 47.9225 23.7244 44.8518 23.7244Z" fill="#EFEEEC"/>
<path d="M33.4508 3.16608C32.6719 3.16608 31.9183 3.44712 31.3288 3.95781C30.674 4.52514 30.2793 5.31359 30.2174 6.17793C30.1553 7.04209 30.4335 7.87865 31.001 8.53349C31.6171 9.24515 32.5118 9.65327 33.4544 9.65327C34.2334 9.65327 34.987 9.37205 35.5768 8.86155C36.2313 8.2944 36.6258 7.50612 36.6879 6.64178C36.7498 5.77726 36.4713 4.94052 35.9042 4.28586C35.2876 3.57402 34.3933 3.16608 33.4508 3.16608ZM33.4544 12.2971C31.744 12.2971 30.1214 11.5562 29.0027 10.2644C27.973 9.07577 27.4677 7.5575 27.5801 5.98858C27.6928 4.42021 28.4092 2.98926 29.5976 1.95953C30.668 1.03256 32.0363 0.522234 33.4508 0.522234C35.1611 0.522234 36.7838 1.26313 37.9026 2.55501C38.9324 3.74322 39.4374 5.26186 39.3247 6.83078C39.2125 8.39933 38.4959 9.83046 37.3075 10.8598C36.2373 11.7868 34.8688 12.2971 33.4544 12.2971Z" fill="#EFEEEC"/>
<path d="M33.4508 3.16608C32.6719 3.16608 31.9183 3.44712 31.3288 3.95781C30.674 4.52514 30.2793 5.31359 30.2174 6.17793C30.1553 7.04209 30.4335 7.87865 31.001 8.53349C31.6171 9.24515 32.5118 9.65327 33.4544 9.65327C34.2334 9.65327 34.987 9.37205 35.5768 8.86155C36.2313 8.2944 36.6258 7.50612 36.6879 6.64178C36.7498 5.77726 36.4713 4.94052 35.9042 4.28586C35.2876 3.57402 34.3933 3.16608 33.4508 3.16608ZM33.4544 12.2971C31.744 12.2971 30.1214 11.5562 29.0027 10.2644C27.973 9.07577 27.4677 7.5575 27.5801 5.98858C27.6928 4.42021 28.4092 2.98926 29.5976 1.95953C30.668 1.03256 32.0363 0.522234 33.4508 0.522234C35.1611 0.522234 36.7838 1.26313 37.9026 2.55501C38.9324 3.74322 39.4374 5.26186 39.3247 6.83078C39.2125 8.39933 38.4959 9.83046 37.3075 10.8598C36.2373 11.7868 34.8688 12.2971 33.4544 12.2971Z" fill="#EFEEEC"/>
<path d="M17.3098 3.144C15.6193 3.144 14.2001 4.46692 14.079 6.15566C13.9511 7.93971 15.2987 9.4952 17.0827 9.62319C18.8709 9.74882 20.4232 8.3865 20.5499 6.61969C20.6118 5.75535 20.3335 4.91897 19.7663 4.26395C19.199 3.60912 18.4105 3.21425 17.5466 3.15235C17.4672 3.14672 17.3883 3.144 17.3098 3.144ZM17.3187 12.2754C17.3185 12.2754 17.3189 12.2754 17.3187 12.2754C17.1779 12.2754 17.035 12.2701 16.8939 12.2601C15.3252 12.1478 13.894 11.4312 12.8645 10.2424C11.8348 9.05368 11.3295 7.53505 11.4421 5.96667C11.6618 2.90109 14.2392 0.500146 17.3098 0.500146C17.4511 0.500146 17.5943 0.505226 17.7356 0.515393C19.3041 0.62777 20.7352 1.34433 21.7646 2.5331C22.7942 3.72168 23.2994 5.23994 23.1868 6.8085C22.9675 9.8739 20.3898 12.2754 17.3187 12.2754Z" fill="#EFEEEC"/>
<path d="M17.3098 3.144C15.6193 3.144 14.2001 4.46692 14.079 6.15566C13.9511 7.93971 15.2987 9.4952 17.0827 9.62319C18.8709 9.74882 20.4232 8.3865 20.5499 6.61969C20.6118 5.75535 20.3335 4.91897 19.7663 4.26395C19.199 3.60912 18.4105 3.21425 17.5466 3.15235C17.4672 3.14672 17.3883 3.144 17.3098 3.144ZM17.3187 12.2754C17.3185 12.2754 17.3189 12.2754 17.3187 12.2754C17.1779 12.2754 17.035 12.2701 16.8939 12.2601C15.3252 12.1478 13.894 11.4312 12.8645 10.2424C11.8348 9.05368 11.3295 7.53505 11.4421 5.96667C11.6618 2.90109 14.2392 0.500146 17.3098 0.500146C17.4511 0.500146 17.5943 0.505226 17.7356 0.515393C19.3041 0.62777 20.7352 1.34433 21.7646 2.5331C22.7942 3.72168 23.2994 5.23994 23.1868 6.8085C22.9675 9.8739 20.3898 12.2754 17.3187 12.2754Z" fill="#EFEEEC"/>
<path d="M5.88628 14.5394C5.10745 14.5394 4.35385 14.8206 3.76474 15.3313C3.10936 15.899 2.71449 16.6871 2.65259 17.5514C2.5905 18.4156 2.86881 19.2521 3.43596 19.9068C4.05249 20.6184 4.94696 21.0266 5.88973 21.0266C6.66856 21.0266 7.42198 20.7455 8.01182 20.2348C9.36325 19.0637 9.51048 17.0109 8.33969 15.6592C7.72317 14.9475 6.82905 14.5394 5.88628 14.5394ZM5.88991 23.6704C5.88973 23.6704 5.88991 23.6704 5.88973 23.6704C4.17939 23.6704 2.55673 22.9297 1.4375 21.6378C0.408135 20.4494 -0.0971064 18.9308 0.015452 17.3621C0.127829 15.7935 0.844571 14.3626 2.03351 13.333C3.10336 12.4062 4.47168 11.8955 5.88628 11.8955C7.59663 11.8955 9.21928 12.6364 10.338 13.9283C12.4631 16.3819 12.1961 20.1074 9.74268 22.2331C8.67247 23.1601 7.30416 23.6704 5.88991 23.6704Z" fill="#EFEEEC"/>
<path d="M5.88628 14.5394C5.10745 14.5394 4.35385 14.8206 3.76474 15.3313C3.10936 15.899 2.71449 16.6871 2.65259 17.5514C2.5905 18.4156 2.86881 19.2521 3.43596 19.9068C4.05249 20.6184 4.94696 21.0266 5.88973 21.0266C6.66856 21.0266 7.42198 20.7455 8.01182 20.2348C9.36325 19.0637 9.51048 17.0109 8.33969 15.6592C7.72317 14.9475 6.82905 14.5394 5.88628 14.5394ZM5.88991 23.6704C5.88973 23.6704 5.88991 23.6704 5.88973 23.6704C4.17939 23.6704 2.55673 22.9297 1.4375 21.6378C0.408135 20.4494 -0.0971064 18.9308 0.015452 17.3621C0.127829 15.7935 0.844571 14.3626 2.03351 13.333C3.10336 12.4062 4.47168 11.8955 5.88628 11.8955C7.59663 11.8955 9.21928 12.6364 10.338 13.9283C12.4631 16.3819 12.1961 20.1074 9.74268 22.2331C8.67247 23.1601 7.30416 23.6704 5.88991 23.6704Z" fill="#EFEEEC"/>
</svg>
