<svg width="33" height="32" viewBox="0 0 33 32" fill="none" xmlns="http://www.w3.org/2000/svg">
<path fill-rule="evenodd" clip-rule="evenodd" d="M16.8327 2.66675C22.898 2.66675 27.8327 7.63875 27.8327 13.7507C27.8327 21.2641 19.2247 28.6667 16.8327 28.6667C14.4407 28.6667 5.83267 21.2641 5.83267 13.7507C5.83267 7.63875 10.7673 2.66675 16.8327 2.66675ZM16.8327 4.66675C11.87 4.66675 7.83267 8.74275 7.83267 13.7507C7.83267 20.1227 15.3313 26.3307 16.8327 26.6614C18.334 26.3294 25.8327 20.1214 25.8327 13.7507C25.8327 8.74275 21.7953 4.66675 16.8327 4.66675ZM16.834 9.33342C19.2233 9.33342 21.1673 11.2774 21.1673 13.6681C21.1673 16.0574 19.2233 18.0001 16.834 18.0001C14.4447 18.0001 12.5007 16.0574 12.5007 13.6681C12.5007 11.2774 14.4447 9.33342 16.834 9.33342ZM16.834 11.3334C15.5473 11.3334 14.5007 12.3801 14.5007 13.6681C14.5007 14.9547 15.5473 16.0001 16.834 16.0001C18.1207 16.0001 19.1673 14.9547 19.1673 13.6681C19.1673 12.3801 18.1207 11.3334 16.834 11.3334Z" fill="#F2F2F2"/>
</svg>
