<svg width="33" height="32" viewBox="0 0 33 32" fill="none" xmlns="http://www.w3.org/2000/svg">
<path fill-rule="evenodd" clip-rule="evenodd" d="M22.7119 2.66675C27.1519 2.66675 30.4999 6.28942 30.4999 11.0934V20.2507C30.4999 22.7094 29.6305 24.9307 28.0505 26.5067C26.6332 27.9187 24.7945 28.6667 22.7332 28.6667H9.59587C7.53854 28.6667 5.70121 27.9201 4.28254 26.5067C2.70254 24.9307 1.83321 22.7094 1.83321 20.2507V11.0934C1.83321 6.28942 5.18121 2.66675 9.62121 2.66675H22.7119ZM22.7119 4.66675H9.62121C6.26787 4.66675 3.83321 7.36942 3.83321 11.0934V20.2507C3.83321 22.1747 4.49454 23.8934 5.69454 25.0894C6.72921 26.1227 8.07987 26.6667 9.59987 26.6667H22.7119C22.7145 26.6641 22.7252 26.6667 22.7332 26.6667C24.2545 26.6667 25.6039 26.1227 26.6385 25.0894C27.8399 23.8934 28.4999 22.1747 28.4999 20.2507V11.0934C28.4999 7.36942 26.0652 4.66675 22.7119 4.66675ZM24.8132 10.8385C25.1612 11.2665 25.0959 11.8958 24.6679 12.2451L18.7425 17.0611C17.9932 17.6558 17.0972 17.9531 16.2025 17.9531C15.3105 17.9531 14.4212 17.6585 13.6772 17.0691L7.69721 12.2478C7.26654 11.9011 7.19987 11.2705 7.54521 10.8411C7.89321 10.4131 8.52254 10.3451 8.95187 10.6905L14.9265 15.5065C15.6772 16.1011 16.7345 16.1011 17.4905 15.5011L23.4052 10.6931C23.8345 10.3425 24.4639 10.4091 24.8132 10.8385Z" fill="#F2F2F2"/>
</svg>
